<?xml version="1.0" encoding="UTF-8" standalone="no"?><!DOCTYPE svg PUBLIC "-//W3C//DTD SVG 1.1//EN" "http://www.w3.org/Graphics/SVG/1.1/DTD/svg11.dtd"><svg width="100%" height="100%" viewBox="0 0 24 96" version="1.1" xmlns="http://www.w3.org/2000/svg" xmlns:xlink="http://www.w3.org/1999/xlink" xml:space="preserve" xmlns:serif="http://www.serif.com/" style="fill-rule:evenodd;clip-rule:evenodd;stroke-linejoin:round;stroke-miterlimit:2;"><path d="M16.622,14.789c-0,1.521 -1.252,2.773 -2.773,2.773c-1.522,-0 -2.773,-1.252 -2.773,-2.773c-0,-1.521 1.251,-2.773 2.773,-2.773c1.521,0 2.773,1.252 2.773,2.773Zm3.697,0c-0,0 -0,0 -0,0c-0,3.55 -2.921,6.47 -6.47,6.47c-0.005,0 -0.01,0 -0.015,0c-0.256,-0 -0.511,-0.015 -0.765,-0.045c-2.845,-0.365 -5.133,-2.564 -5.61,-5.393c-0.397,-2.451 0.653,-4.921 2.692,-6.337l0,-4.862c0,-2.029 1.669,-3.698 3.698,-3.698c2.028,0 3.697,1.669 3.697,3.698l-0,4.863c1.731,1.21 2.768,3.192 2.773,5.304Zm-1.849,0c-0.005,-1.647 -0.886,-3.172 -2.311,-3.998c-0.285,-0.164 -0.461,-0.47 -0.462,-0.799l0,-5.37c0,-1.015 -0.834,-1.849 -1.848,-1.849c-1.014,-0 -1.849,0.834 -1.849,1.849l0,5.37c-0,0.329 -0.177,0.635 -0.462,0.799c-1.428,0.825 -2.311,2.354 -2.311,4.003c0,2.535 2.086,4.621 4.622,4.621c2.535,0 4.621,-2.086 4.621,-4.621c0,-0.002 0,-0.003 0,-0.005Zm-10.167,-12.016l-3.698,-0c-0.507,-0 -0.924,0.417 -0.924,0.924c0,0.507 0.417,0.925 0.924,0.925l3.698,-0c0.507,-0 0.924,-0.418 0.924,-0.925c0,-0.507 -0.417,-0.924 -0.924,-0.924Zm0.924,4.622c0,-0.508 -0.417,-0.925 -0.924,-0.925l-1.849,0c-0.507,0 -0.924,0.417 -0.924,0.925c-0,0.507 0.417,0.924 0.924,0.924l1.849,-0c0.507,-0 0.924,-0.417 0.924,-0.924Z" style="fill:#fff;fill-rule:nonzero;"/><g><g><path d="M12,24c-6.13,0 -11.092,4.961 -11.092,11.092c0,6.13 4.961,11.092 11.092,11.092c6.13,-0 11.092,-4.961 11.092,-11.092c-0,-6.131 -4.961,-11.092 -11.092,-11.092Zm0,20.737c-5.318,-0 -9.645,-4.327 -9.645,-9.645c-0,-5.319 4.327,-9.645 9.645,-9.645c5.318,-0 9.645,4.327 9.645,9.645c0,5.318 -4.327,9.645 -9.645,9.645Z" style="fill:#fff;fill-rule:nonzero;"/></g></g><g><g><path d="M12,26.894c-4.537,-0 -8.198,3.68 -8.198,8.198c-0,2.106 0.817,4.213 2.401,5.797c0.282,0.282 0.74,0.282 1.023,-0l1.023,-1.023c0.282,-0.283 0.282,-0.741 -0,-1.023c-0.282,-0.283 -0.74,-0.283 -1.023,-0l-0.484,0.484c-0.834,-1.033 -1.318,-2.257 -1.452,-3.512l0.682,0c0.399,0 0.723,-0.324 0.723,-0.723c0,-0.4 -0.324,-0.724 -0.723,-0.724l-0.681,0c0.134,-1.254 0.617,-2.478 1.451,-3.511l0.484,0.484c0.283,0.282 0.741,0.282 1.023,-0c0.282,-0.283 0.282,-0.741 0,-1.023l-0.484,-0.485c1.008,-0.814 2.219,-1.315 3.512,-1.451l-0,0.682c-0,0.399 0.324,0.723 0.723,0.723c0.4,0 0.723,-0.324 0.723,-0.723l0,-0.682c1.293,0.136 2.504,0.637 3.512,1.451l-3.121,3.121c-0.333,-0.174 -0.712,-0.274 -1.114,-0.274c-1.33,0 -2.411,1.082 -2.411,2.412c-0,1.329 1.082,2.411 2.411,2.411c1.33,-0 2.411,-1.082 2.411,-2.411c0,-0.402 -0.099,-0.781 -0.274,-1.115l3.121,-3.12c0.834,1.033 1.317,2.257 1.451,3.511l-0.681,0c-0.399,0 -0.723,0.324 -0.723,0.724c-0,0.399 0.324,0.723 0.723,0.723l0.682,0c-0.134,1.255 -0.618,2.479 -1.452,3.512l-0.484,-0.484c-0.282,-0.283 -0.74,-0.283 -1.023,-0c-0.282,0.282 -0.282,0.74 0,1.023l1.023,1.023c0.283,0.282 0.741,0.282 1.023,-0c1.581,-1.581 2.401,-3.687 2.401,-5.797c0,-4.52 -3.663,-8.198 -8.198,-8.198Zm0,9.162c-0.532,0 -0.965,-0.432 -0.965,-0.964c0,-0.532 0.433,-0.965 0.965,-0.965c0.532,0 0.965,0.433 0.965,0.965c-0,0.532 -0.433,0.964 -0.965,0.964Z" style="fill:#fff;fill-rule:nonzero;"/></g></g><g><g><path d="M12.723,38.95l-1.446,-0c-1.197,-0 -2.17,0.973 -2.17,2.17c-0,1.197 0.973,2.17 2.17,2.17l1.446,0c1.197,0 2.171,-0.973 2.171,-2.17c-0,-1.197 -0.974,-2.17 -2.171,-2.17Zm0,2.893l-1.446,0c-0.399,0 -0.724,-0.324 -0.724,-0.723c0,-0.399 0.325,-0.723 0.724,-0.723l1.446,-0c0.399,-0 0.724,0.324 0.724,0.723c-0,0.399 -0.325,0.723 -0.724,0.723Z" style="fill:#fff;fill-rule:nonzero;"/></g></g><path d="M17.607,58.495l-4.972,-7.918c-0.146,-0.205 -0.383,-0.327 -0.635,-0.327c-0.252,-0 -0.489,0.122 -0.635,0.327l-4.994,7.956c-0.694,1.119 -1.081,2.401 -1.121,3.717c0,3.703 3.047,6.75 6.75,6.75c3.703,0 6.75,-3.047 6.75,-6.75c-0.043,-1.33 -0.437,-2.626 -1.143,-3.755Zm-5.607,9.005c-2.879,-0.003 -5.246,-2.371 -5.25,-5.25c0.04,-1.049 0.355,-2.069 0.914,-2.957l0.701,-1.117l7.555,7.555c-0.992,1.124 -2.421,1.769 -3.92,1.769Z" style="fill:#fff;fill-rule:nonzero;"/><g><g><path d="M11.334,84.858c-0,-2.161 -1.759,-3.92 -3.92,-3.92c-2.162,0 -3.92,1.759 -3.92,3.92c-0,0.634 0.151,1.232 0.419,1.762l3.501,7.22l3.501,-7.221c0.268,-0.529 0.419,-1.128 0.419,-1.761Zm-3.92,2.17c-1.196,-0 -2.17,-0.974 -2.17,-2.17c0,-1.196 0.974,-2.169 2.17,-2.169c1.196,-0 2.169,0.973 2.169,2.169c-0,1.196 -0.973,2.17 -2.169,2.17Z" style="fill:#fff;fill-rule:nonzero;"/><path d="M18.521,72.486c-1.094,-0 -1.985,0.89 -1.985,1.985c0,0.32 0.077,0.623 0.212,0.892l1.773,3.656l1.773,-3.657c0.136,-0.268 0.212,-0.571 0.212,-0.891c0,-1.095 -0.89,-1.985 -1.985,-1.985Zm0,3.083c-0.605,0 -1.098,-0.493 -1.098,-1.098c-0,-0.606 0.493,-1.099 1.098,-1.099c0.606,0 1.099,0.493 1.099,1.099c-0,0.605 -0.493,1.098 -1.099,1.098Z" style="fill:#fff;fill-rule:nonzero;"/><path d="M16.792,85.363c-0.08,-0.379 -0.185,-0.75 -0.316,-1.114c-0.177,-0.488 -0.389,-0.965 -0.551,-1.459c-0.303,-0.923 0.22,-1.694 0.318,-1.834c0.172,-0.245 0.374,-0.47 0.586,-0.68c0.409,-0.406 0.861,-0.769 1.333,-1.103c-0.059,-0.09 -0.116,-0.182 -0.169,-0.275c-0.679,0.266 -4.171,1.486 -4.086,4.182c0.017,0.541 0.226,1.055 0.355,1.579c0.062,0.253 0.115,0.507 0.148,0.765c0.014,0.116 0.023,0.233 0.033,0.35c-0,-0.001 -0,-0.002 -0.001,-0.002c0.001,0.003 0.009,0.37 -0.007,0.529c-0.051,0.497 -0.124,0.999 -0.334,1.455c-0.195,0.425 -0.489,0.793 -0.853,1.085c-0.832,0.666 -1.934,0.933 -2.973,1.04c-0.05,0.005 -0.099,0.009 -0.149,0.014l-1.857,3.828c0.917,-0.057 1.83,-0.182 2.722,-0.402c1.049,-0.258 2.071,-0.648 2.987,-1.226c0.915,-0.578 1.702,-1.359 2.226,-2.31c0.549,-0.995 0.768,-2.135 0.721,-3.264c-0.015,-0.386 -0.052,-0.779 -0.133,-1.158Z" style="fill:#fff;fill-rule:nonzero;"/></g></g></svg>